<?xml version="1.0" encoding="UTF-8"?>
<svg id="Layer_2" data-name="Layer 2" xmlns="http://www.w3.org/2000/svg" viewBox="0 0 416.78 180.85">
  <defs>
    <style>
      .cls-1, .cls-2 {
        fill: #fff;
      }

      .cls-1, .cls-3, .cls-4 {
        fill-rule: evenodd;
      }

      .cls-3 {
        fill: #8e8e8e;
      }

      .cls-4 {
        fill: #34b44d;
      }
    </style>
  </defs>
  <g id="Layer_1-2" data-name="Layer 1">
    <g>
      <path class="cls-1" d="M84.9,127.29h3.38c1.55,0,2.36-.83,2.36-2.07s-.81-2.07-2.36-2.07h-3.38v4.14ZM83.99,132.56v-10.25h4.33c1.96,0,3.24,1.12,3.24,2.91,0,1.48-.91,2.53-2.39,2.82l2.64,4.52h-1.07l-2.53-4.44h-3.32v4.44h-.91Z"/>
      <polygon class="cls-1" points="93.81 122.32 100.5 122.32 100.5 123.13 94.72 123.13 94.72 126.85 99.71 126.85 99.71 127.67 94.72 127.67 94.72 131.75 100.67 131.75 100.67 132.56 93.81 132.56 93.81 122.32"/>
      <path class="cls-1" d="M107.16,122.17c1.85,0,3.44.89,4.43,2.35l-.7.51c-.94-1.31-2.27-2.02-3.72-2.02-2.49,0-4.3,1.89-4.3,4.45s1.85,4.44,4.34,4.44c1.5,0,2.82-.69,3.77-2.02l.67.51c-.97,1.43-2.61,2.34-4.44,2.34-2.99,0-5.26-2.26-5.26-5.27s2.24-5.28,5.21-5.28Z"/>
      <rect class="cls-2" x="113.61" y="122.32" width=".91" height="10.25"/>
      <path class="cls-1" d="M118.32,127.29h3.38c1.55,0,2.36-.83,2.36-2.07s-.81-2.07-2.36-2.07h-3.38v4.14ZM117.41,132.56v-10.25h4.33c1.96,0,3.24,1.12,3.24,2.91,0,1.48-.91,2.53-2.39,2.82l2.64,4.52h-1.06l-2.53-4.44h-3.32v4.44h-.91Z"/>
      <path class="cls-1" d="M131.69,122.17c1.85,0,3.44.89,4.43,2.35l-.7.51c-.94-1.31-2.27-2.02-3.73-2.02-2.49,0-4.3,1.89-4.3,4.45s1.85,4.44,4.34,4.44c1.5,0,2.83-.69,3.77-2.02l.67.51c-.97,1.43-2.61,2.34-4.44,2.34-2.99,0-5.26-2.26-5.26-5.27s2.24-5.28,5.21-5.28Z"/>
      <path class="cls-1" d="M138.03,122.32h.9v6.51c0,1.8,1.31,3.04,3.43,3.04s3.43-1.23,3.43-3.04v-6.51h.9v6.51c0,2.33-1.65,3.89-4.33,3.89s-4.33-1.56-4.33-3.89v-6.51Z"/>
      <polygon class="cls-1" points="149.48 132.56 149.48 122.32 150.38 122.32 150.38 131.73 156.59 131.73 156.59 132.56 149.48 132.56"/>
      <path class="cls-1" d="M164.5,129.14l-2.5-6.01-2.49,6.01h4.99ZM157.16,132.56l4.25-10.25h1.19l4.25,10.25h-.92l-1.09-2.62h-5.66l-1.1,2.62h-.92Z"/>
      <path class="cls-1" d="M167.55,127.45c0-3,2.24-5.28,5.21-5.28,1.85,0,3.44.89,4.43,2.35l-.7.51c-.94-1.31-2.27-2.02-3.72-2.02-2.49,0-4.3,1.89-4.3,4.45s1.85,4.44,4.34,4.44c1.5,0,2.82-.69,3.77-2.02l.67.51c-.92,1.37-2.47,2.26-4.2,2.33l-.21.63c.91.07,1.53.52,1.53,1.22,0,.81-.68,1.3-1.82,1.3-.43,0-.79-.08-.97-.14v-.75c.18.06.48.14.9.14.69,0,1.05-.2,1.05-.56,0-.4-.41-.61-1.22-.61h-.37l.45-1.24c-2.78-.2-4.84-2.39-4.84-5.25Z"/>
      <path class="cls-1" d="M181.84,119.52c.81,0,1.31.61,1.95.61.44,0,.7-.26.98-.6l.51.42c-.35.49-.8.94-1.47.94-.81,0-1.35-.61-1.99-.61-.44,0-.69.26-.98.6l-.51-.42c.36-.49.85-.94,1.5-.94ZM180.32,129.14h4.99l-2.5-6.01-2.49,6.01ZM177.96,132.56l4.25-10.25h1.19l4.25,10.25h-.92l-1.09-2.62h-5.66l-1.1,2.62h-.92Z"/>
      <path class="cls-1" d="M193.58,131.89c2.52,0,4.36-1.81,4.36-4.39s-1.83-4.5-4.36-4.5-4.31,1.89-4.31,4.5,1.83,4.39,4.31,4.39ZM188.37,127.49c0-3.09,2.24-5.33,5.21-5.33s5.27,2.23,5.27,5.33-2.24,5.22-5.27,5.22-5.21-2.15-5.21-5.22Z"/>
      <path class="cls-1" d="M205.36,131.75h2.88c2.61,0,4.46-1.87,4.46-4.3s-1.84-4.32-4.46-4.32h-2.88v8.62ZM208.24,122.32c3.08,0,5.37,2.18,5.37,5.13s-2.29,5.11-5.37,5.11h-3.78v-10.25h3.78Z"/>
      <polygon class="cls-1" points="215.85 122.32 222.54 122.32 222.54 123.13 216.76 123.13 216.76 126.85 221.75 126.85 221.75 127.67 216.76 127.67 216.76 131.75 222.71 131.75 222.71 132.56 215.85 132.56 215.85 122.32"/>
      <path class="cls-1" d="M232.22,118.93h1.04l-1.31,2.52h-.81l1.07-2.52ZM228.97,129.14h4.99l-2.5-6.01-2.49,6.01ZM226.62,132.56l4.25-10.25h1.19l4.25,10.25h-.92l-1.09-2.62h-5.66l-1.1,2.62h-.92Z"/>
      <path class="cls-1" d="M242.22,122.17c1.85,0,3.44.89,4.43,2.35l-.7.51c-.94-1.31-2.27-2.02-3.73-2.02-2.49,0-4.3,1.89-4.3,4.45s1.85,4.44,4.36,4.44,3.87-1.82,4-3.58h-3.87v-.82h4.81c0,.12,0,.14,0,.32,0,2.71-1.93,4.91-4.96,4.91s-5.27-2.26-5.27-5.27,2.24-5.28,5.21-5.28Z"/>
      <path class="cls-1" d="M249.27,122.32h.9v6.51c0,1.8,1.31,3.04,3.43,3.04s3.43-1.23,3.43-3.04v-6.51h.9v6.51c0,2.33-1.65,3.89-4.33,3.89s-4.33-1.56-4.33-3.89v-6.51Z"/>
      <path class="cls-1" d="M266.55,129.14l-2.5-6.01-2.49,6.01h4.99ZM259.21,132.56l4.25-10.25h1.19l4.25,10.25h-.92l-1.09-2.62h-5.66l-1.1,2.62h-.92Z"/>
      <path class="cls-1" d="M273.72,127.49c0,2.58,1.83,4.39,4.31,4.39.8,0,1.53-.18,2.15-.51l-1.49-1.95.69-.49,1.5,1.97c.93-.78,1.5-1.97,1.5-3.4,0-2.61-1.83-4.5-4.36-4.5s-4.31,1.89-4.31,4.5ZM272.82,127.49c0-3.09,2.24-5.33,5.21-5.33s5.27,2.23,5.27,5.33c0,1.74-.72,3.18-1.88,4.1l1.29,1.7-.7.49-1.31-1.72c-.78.42-1.68.66-2.68.66-2.98,0-5.21-2.15-5.21-5.22Z"/>
      <path class="cls-1" d="M285.43,122.32h.9v6.51c0,1.8,1.31,3.04,3.43,3.04s3.43-1.23,3.43-3.04v-6.51h.9v6.51c0,2.33-1.65,3.89-4.33,3.89s-4.33-1.56-4.33-3.89v-6.51Z"/>
      <polygon class="cls-1" points="296.88 122.32 303.57 122.32 303.57 123.13 297.79 123.13 297.79 126.85 302.78 126.85 302.78 127.67 297.79 127.67 297.79 131.75 303.74 131.75 303.74 132.56 296.88 132.56 296.88 122.32"/>
      <polygon class="cls-1" points="306.99 122.32 314.24 131.3 314.24 122.32 315.15 122.32 315.15 132.56 314.13 132.56 306.87 123.56 306.87 132.56 305.97 132.56 305.97 122.32 306.99 122.32"/>
      <polygon class="cls-1" points="316.93 122.32 324.8 122.32 324.8 123.15 321.32 123.15 321.32 132.56 320.41 132.56 320.41 123.15 316.93 123.15 316.93 122.32"/>
      <polygon class="cls-1" points="326.59 122.32 333.28 122.32 333.28 123.13 327.49 123.13 327.49 126.85 332.49 126.85 332.49 127.67 327.49 127.67 327.49 131.75 333.45 131.75 333.45 132.56 326.59 132.56 326.59 122.32"/>
      <path class="cls-4" d="M60.26,78.29h7.29c2.92,0,5.3-2.58,5.3-5.96s-2.39-5.95-5.3-5.95h-7.29v11.91ZM64.37,87.56h-4.11v15.22h-10.6v-46.32h17.89c8.81,0,15.9,7.08,15.9,15.88,0,5.56-3.31,10.59-8.22,13.3l13.52,17.14h-12.32l-12.06-15.22Z"/>
      <path class="cls-4" d="M107.57,93.38c0-2.05-1.79-3.31-5.03-3.31-3.05,0-4.51,1.39-4.51,3.31s1.46,3.31,4.51,3.31c3.25,0,5.03-1.39,5.03-3.31ZM117.25,81.93v20.84h-9.67v-2.58c-1.79,2.05-4.37,3.51-8.55,3.51-5.83,0-10.93-3.44-10.93-10.32s5.1-10.32,10.93-10.32c4.17,0,6.76,1.19,8.55,2.51v-2.98c0-3.24-1.32-4.7-4.11-4.7s-4.11,1.46-4.11,3.37h-9.67c0-8.27,6.49-12.51,13.78-12.51s13.78,4.23,13.78,13.17Z"/>
      <path class="cls-4" d="M147.73,86.23c0-4.96-3.31-8.07-7.88-8.07s-7.88,3.11-7.88,8.07,3.31,8.07,7.88,8.07,7.88-3.11,7.88-8.07ZM157.66,69.69v46.32h-9.94v-16.34c-2.19,2.51-5.43,4.04-9.87,4.04-8.68,0-15.84-7.61-15.84-17.47s7.15-17.47,15.84-17.47c4.44,0,7.69,1.52,9.87,4.04v-3.11h9.94Z"/>
      <path class="cls-4" d="M355.93,25.89C317.09,9.19,264.7,0,208.39,0S99.68,9.19,60.84,25.89C21.61,42.75,0,65.67,0,90.42s21.61,47.67,60.84,64.54c38.84,16.69,91.23,25.89,147.54,25.89,30.77,0,60.24-2.7,87.57-8.04l8.67-1.44c.22-.04.37.05.44.1.07.05.2.17.24.38l.86,5.19c.22,1.33,1.15,2.41,2.43,2.82,1.28.42,2.67.08,3.62-.86l17.64-17.46c.82-.82,1.2-1.98,1.01-3.13-.19-1.14-.93-2.12-1.98-2.63l-21.82-10.51c-1.21-.58-2.62-.44-3.7.36-1.07.8-1.61,2.12-1.39,3.44l1.06,6.45c.03.21-.05.36-.1.43-.05.07-.17.2-.41.24l-23.46,4.36c-22.49,3.55-46.27,5.35-70.67,5.35-52.71,0-102.14-8.43-139.2-23.73-34.46-14.23-54.22-33.09-54.22-51.75s19.76-37.52,54.22-51.75c37.06-15.3,86.5-23.73,139.2-23.73s102.14,8.43,139.21,23.73c34.46,14.23,54.22,33.09,54.22,51.75,0,16.25-14.89,32.64-41.91,46.15-3.17,1.59-4.8,5.09-3.96,8.51.55,2.23,2.06,4.06,4.15,5.02,2.09.96,4.47.92,6.53-.11,32.34-16.23,50.15-37.39,50.15-59.57,0-24.75-21.61-47.67-60.84-64.54Z"/>
      <path class="cls-3" d="M162.63,88.22h10.6c0,3.51,1.92,5.16,6.56,5.16,4.31,0,5.7-1.65,5.7-3.57,0-2.71-3.31-3.9-7.36-5.29-6.56-2.25-14.84-4.96-14.84-15.09,0-9.26,7.55-13.9,15.44-13.9s16.03,4.63,16.03,15.48h-10.6c0-3.51-1.79-5.16-5.43-5.16-3.31,0-4.84,1.65-4.84,3.57,0,2.78,2.72,4.1,6.56,5.49,6.63,2.32,15.64,4.7,15.64,14.89,0,9.26-7.42,13.9-16.3,13.9s-17.16-4.63-17.16-15.48Z"/>
      <polygon class="cls-3" points="229.89 69.69 214.52 116.01 203.92 116.01 208.49 102.25 196.1 69.69 206.7 69.69 213.46 88.55 219.29 69.69 229.89 69.69"/>
      <path class="cls-3" d="M258.45,92.85c0,7.61-6.49,10.85-13.78,10.85s-13.78-3.57-13.78-11.78h9.67c0,1.92,1.32,3.18,4.11,3.18s3.84-.93,3.84-2.25c0-4.76-17.29-.4-17.29-13.23,0-7.48,6.49-10.85,13.45-10.85s13.12,3.57,13.12,11.78h-9.67c0-1.92-1.32-3.18-3.45-3.18-2.45,0-3.51.93-3.51,2.25,0,4.9,17.29.33,17.29,13.23Z"/>
      <polygon class="cls-3" points="281.64 79.22 276.34 79.22 276.34 102.78 266.4 102.78 266.4 79.22 261.1 79.22 261.1 69.69 266.4 69.69 266.4 59.11 276.34 59.11 276.34 69.69 281.64 69.69 281.64 79.22"/>
      <path class="cls-3" d="M308.54,82.66c-1.06-3.77-3.98-5.09-6.89-5.09-3.71,0-6.3,1.79-7.36,5.09h14.24ZM302.11,95.7c2.39,0,4.7-1.06,5.7-2.52l9.67-.07c-2.19,6.95-8.02,10.59-15.5,10.59-11,0-18.02-7.61-18.02-17.47s7.29-17.47,17.76-17.47c9.67,0,16.7,7.48,16.7,17.47,0,1.39-.13,2.71-.4,3.97h-23.65c1.19,3.9,4.31,5.49,7.75,5.49Z"/>
      <path class="cls-3" d="M368.3,80.48v22.3h-9.94v-21.44c0-2.65-1.59-3.44-3.44-3.44-1.99,0-3.84.99-3.84,4.23v20.64h-9.94v-21.44c0-2.65-1.59-3.44-3.44-3.44-1.99,0-3.84.99-3.84,4.23v20.64h-9.94v-33.08h9.94v2.98c1.52-2.25,4.17-3.9,7.62-3.9s6.03,1.32,7.69,3.97c2.12-2.32,4.9-3.97,8.88-3.97,6.49,0,10.27,4.1,10.27,11.71Z"/>
    </g>
  </g>
</svg>